<?xml version="1.0" encoding="UTF-8"?>
<svg version="1.1" xmlns="http://www.w3.org/2000/svg" width="1024" height="1024">
<path d="M0 0 C2.88134415 0.00462157 5.76226499 -0.0022837 8.64355469 -0.02050781 C36.83501896 -0.19664483 64.55852221 1.92890193 92.46020508 6.06567383 C93.75713287 6.25459198 93.75713287 6.25459198 95.08026123 6.44732666 C131.23345136 11.73414445 166.92152834 19.28741097 201.75585938 30.39941406 C204.56017421 31.28794032 207.37077836 32.15468251 210.18217468 33.02047729 C296.28522991 59.638331 380.30261248 100.97380578 451.64770508 160.31567383 C452.2380957 160.80696777 452.82848633 161.29826172 453.43676758 161.80444336 C459.78247044 167.09549325 466.03053713 172.48170378 472.13598633 178.05004883 C473.52709797 179.30486182 474.92482058 180.55284332 476.34814453 181.77099609 C482.24352524 186.82918061 487.73096815 192.25047121 493.21020508 197.75317383 C494.57048828 199.10765625 494.57048828 199.10765625 495.95825195 200.48950195 C501.06499953 205.60365598 505.95725524 210.81918143 510.64770508 216.31567383 C511.57302132 217.36411106 512.50002357 218.41106343 513.42895508 219.45629883 C550.34402952 261.46891273 586.25770986 318.7584823 586.88598633 376.38208008 C586.89578018 377.1299881 586.90557404 377.87789612 586.91566467 378.64846802 C587.23090402 408.98010358 583.24294674 435.41614208 568.64770508 462.31567383 C568.32543945 462.9239502 568.00317383 463.53222656 567.67114258 464.15893555 C540.37526699 515.5467501 485.52655368 544.30726445 432.13476562 561.24243164 C407.14291249 568.88303157 381.46189661 572.78893694 355.58520508 576.00317383 C354.63564941 576.12265381 353.68609375 576.24213379 352.70776367 576.36523438 C336.61549052 578.27217012 320.52100907 578.51947539 304.33520508 578.50317383 C303.31490204 578.50290192 302.294599 578.50263 301.24337769 578.50234985 C275.03038604 578.47047329 248.93253458 577.53311427 222.96118164 573.77954102 C219.86530289 573.34613624 216.76644595 572.94749052 213.66442871 572.5607605 C180.55914373 568.4251849 147.68157753 561.92086326 115.63208008 552.57739258 C114.17040405 552.15127686 114.17040405 552.15127686 112.67919922 551.71655273 C110.83430546 551.17269788 108.9921215 550.61953098 107.15332031 550.05541992 C105.9343103 549.6911792 105.9343103 549.6911792 104.69067383 549.31958008 C103.97935303 549.10116455 103.26803223 548.88274902 102.53515625 548.65771484 C100.43239838 548.12059635 100.43239838 548.12059635 97.64770508 549.31567383 C96.03699547 550.94256517 96.03699547 550.94256517 94.46020508 552.94067383 C71.63504286 579.48374907 30.19219434 590.24720649 -3.35229492 594.31567383 C-22.00911557 595.67490882 -48.9718397 596.21916391 -65.35229492 585.31567383 C-66.19335938 582.78662109 -66.19335938 582.78662109 -66.35229492 580.31567383 C-64.27398012 577.07350274 -61.06028125 576.33060874 -57.53979492 575.12817383 C-38.76826207 568.09927764 -24.86335952 557.04542906 -15.35229492 539.31567383 C-13.73251151 535.70692559 -12.45107422 532.11256673 -11.35229492 528.31567383 C-10.96041992 527.07817383 -10.56854492 525.84067383 -10.16479492 524.56567383 C-8.6822651 518.32068097 -8.6686355 511.70908335 -8.35229492 505.31567383 C-9.05757324 505.20642578 -9.76285156 505.09717773 -10.48950195 504.98461914 C-13.67512684 504.24023809 -16.22923413 503.07147188 -19.15698242 501.61254883 C-20.28740967 501.05019531 -21.41783691 500.4878418 -22.58251953 499.90844727 C-23.7976915 499.29467791 -25.01261132 498.68040911 -26.22729492 498.06567383 C-27.14987595 497.60263855 -27.14987595 497.60263855 -28.09109497 497.13024902 C-37.9475501 492.18023386 -47.61116159 486.93830219 -57.15454102 481.40454102 C-58.47252686 480.64125488 -58.47252686 480.64125488 -59.81713867 479.86254883 C-60.57631592 479.4175 -61.33549316 478.97245117 -62.11767578 478.51391602 C-62.8551001 478.11849609 -63.59252441 477.72307617 -64.35229492 477.31567383 C-65.52610718 476.67432495 -65.52610718 476.67432495 -66.72363281 476.02001953 C-70.43929609 475.02441365 -72.41253578 476.05664948 -75.94604492 477.49926758 C-76.57401978 477.7518483 -77.20199463 478.00442902 -77.84899902 478.2646637 C-79.18023718 478.8040706 -80.50812485 479.35181065 -81.83276367 479.90722656 C-83.81132965 480.73601417 -85.79881303 481.53873282 -87.78979492 482.3371582 C-95.384804 485.4244361 -102.61020571 488.90632725 -109.76049805 492.91748047 C-112.35229492 494.31567383 -112.35229492 494.31567383 -115.35229492 495.31567383 C-110.31290868 504.32357674 -101.97971427 510.64380167 -94.01391602 516.98803711 C-90.6943823 519.64034748 -87.40079092 522.32478746 -84.10229492 525.00317383 C-83.44092529 525.5378125 -82.77955566 526.07245117 -82.09814453 526.62329102 C-80.17672706 528.18006519 -78.26388107 529.74685145 -76.35229492 531.31567383 C-75.70196289 531.83983887 -75.05163086 532.36400391 -74.3815918 532.90405273 C-73.75833008 533.41758301 -73.13506836 533.93111328 -72.49291992 534.46020508 C-71.93636719 534.91371338 -71.37981445 535.36722168 -70.80639648 535.83447266 C-69.35229492 537.31567383 -69.35229492 537.31567383 -68.34350586 539.36914062 C-67.38252924 541.6492231 -67.38252924 541.6492231 -64.35229492 543.31567383 C-63.94385569 546.02771035 -64.21892625 548.55938803 -64.35229492 551.31567383 C-77.43209522 558.91364719 -96.41945286 553.21996996 -110.35229492 550.31567383 C-111.08786621 550.16614258 -111.8234375 550.01661133 -112.58129883 549.86254883 C-126.4785635 546.94462983 -142.5084974 540.89699036 -151.05151367 528.93676758 C-155.11378156 522.49418775 -158.59304963 516.08670086 -158.35229492 508.31567383 C-159.30257568 508.73341064 -160.25285645 509.15114746 -161.23193359 509.58154297 C-219.49952677 535.13884526 -219.49952677 535.13884526 -237.89526367 530.70239258 C-248.06359271 526.23776842 -252.51272698 513.6949878 -257.22729492 504.37817383 C-257.97416651 502.91428661 -258.72124072 501.45050276 -259.46850586 499.98681641 C-271.46020529 476.42696437 -282.82844681 452.5676333 -293.86157227 428.5456543 C-295.29856196 425.43209818 -296.75402074 422.32791719 -298.21557617 419.22583008 C-304.79885979 405.1824147 -310.67363044 390.93219711 -316.17016602 376.43139648 C-316.9450479 374.3890498 -317.73397581 372.35196494 -318.53833008 370.32104492 C-321.75257429 362.00056469 -323.24592224 353.77315574 -320.65698242 344.94458008 C-316.72845274 337.26909141 -308.41837727 335.03777501 -300.85229492 332.44067383 C-298.64205065 331.66375797 -296.43246049 330.88497968 -294.22338867 330.10473633 C-292.99475098 329.67193359 -291.76611328 329.23913086 -290.50024414 328.79321289 C-283.14636275 326.18559973 -275.83028648 323.47279393 -268.51000977 320.77264404 C-265.93198149 319.82201128 -263.35312349 318.87365634 -260.77416992 317.92553711 C-259.17646457 317.33696595 -257.57880614 316.74826741 -255.98120117 316.15942383 C-255.23959244 315.88689789 -254.4979837 315.61437195 -253.73390198 315.33358765 C-249.98589863 313.9598759 -249.98589863 313.9598759 -246.35229492 312.31567383 C-246.65296875 311.81044189 -246.95364258 311.30520996 -247.26342773 310.78466797 C-262.13468047 285.64797943 -274.95082313 259.92141387 -281.35229492 231.31567383 C-281.55129395 230.42944336 -281.75029297 229.54321289 -281.95532227 228.63012695 C-287.03209625 205.0632515 -287.48026927 179.92656361 -282.35229492 156.31567383 C-282.18600586 155.52837891 -282.0197168 154.74108398 -281.84838867 153.92993164 C-275.59591589 125.24960739 -260.35734442 100.4889014 -240.35229492 79.31567383 C-239.70776367 78.62989258 -239.06323242 77.94411133 -238.39916992 77.23754883 C-213.43811884 51.46475625 -180.58568889 34.83529648 -147.35229492 22.50317383 C-146.27866699 22.10473267 -146.27866699 22.10473267 -145.18334961 21.69824219 C-133.55959593 17.48430051 -121.68894879 14.22254896 -109.66479492 11.37817383 C-108.93774353 11.20614441 -108.21069214 11.03411499 -107.46160889 10.85687256 C-96.36593164 8.25801771 -85.24875723 6.11715856 -73.97729492 4.44067383 C-72.72343994 4.24997314 -71.46958496 4.05927246 -70.17773438 3.86279297 C-46.89538802 0.60045849 -23.47184976 -0.04065255 0 0 Z " fill="#000000" transform="translate(401.352294921875,230.684326171875)"/>
<path d="M0 0 C0.67611328 -0.02835938 1.35222656 -0.05671875 2.04882812 -0.0859375 C5.44931861 -0.09920771 7.43641865 0.32412735 10.23046875 2.28125 C18.24958011 11.81041042 22.06323307 23.31909584 25.875 34.9375 C26.38619201 36.45938049 26.89855742 37.98086736 27.41210938 39.50195312 C30.31045821 48.12599138 33.04456333 56.79417436 35.6875 65.5 C36.10980696 66.85614709 36.53394745 68.21172636 36.9609375 69.56640625 C42.60657198 87.48428874 47.86348377 105.496242 52.88232422 123.59960938 C53.60647625 126.20813762 54.33513321 128.81533591 55.06640625 131.421875 C56.07854318 135.03276289 57.08036752 138.6463299 58.07275391 142.26269531 C58.50779067 143.84596654 58.94519998 145.42858675 59.38427734 147.01074219 C60.09749884 149.58838357 60.79991127 152.1687644 61.5 154.75 C61.71930176 155.53681152 61.93860352 156.32362305 62.16455078 157.13427734 C63.29960566 161.36760148 63.93424444 165.07269969 63.6875 169.5 C56.23059324 173.50553101 48.51113007 176.58605815 40.59649658 179.54821777 C15.47967975 187.64780234 15.47967975 187.64780234 -3.5078125 204.53515625 C-4.84480139 207.79974562 -4.77306237 209.98821195 -4.3125 213.5 C1.15589283 224.87342539 12.08874904 232.8082009 21.6875 240.5 C23.92501557 242.32333155 26.1516209 244.1594719 28.375 246 C29.38949219 246.8353125 30.40398437 247.670625 31.44921875 248.53125 C32.18785156 249.1809375 32.92648437 249.830625 33.6875 250.5 C33.6875 250.83 33.6875 251.16 33.6875 251.5 C25.50462547 250.95321806 17.65807732 249.39381653 9.6875 247.5 C8.78644531 247.29632812 7.88539063 247.09265625 6.95703125 246.8828125 C-1.8182342 244.62272823 -10.74002269 239.87651886 -15.984375 232.28125 C-18.27777635 227.47859776 -19.69240619 222.34132376 -21.04614258 217.20214844 C-22.10439166 213.39077139 -22.96391385 210.90981607 -25.55859375 207.859375 C-29.26913347 206.02778944 -31.28542546 206.69149359 -35.3125 207.5 C-37.60704216 208.32178031 -39.87329725 209.2256719 -42.109375 210.1953125 C-42.73641327 210.46375977 -43.36345154 210.73220703 -44.00949097 211.00878906 C-45.34267719 211.57998116 -46.67438948 212.15462425 -48.00469971 212.73248291 C-51.47612778 214.2381241 -54.96096054 215.71207123 -58.4453125 217.1875 C-59.12947235 217.47771027 -59.8136322 217.76792053 -60.51852417 218.06692505 C-93.53575415 232.03074954 -93.53575415 232.03074954 -107.3125 230.5 C-110.24280629 228.03373048 -112.12574704 225.43305201 -113.94921875 222.08984375 C-114.67818359 220.75614746 -114.67818359 220.75614746 -115.421875 219.39550781 C-116.20304687 217.93129395 -116.20304687 217.93129395 -117 216.4375 C-117.83724609 214.87854004 -117.83724609 214.87854004 -118.69140625 213.28808594 C-130.91150408 190.26867676 -141.85847105 166.56323363 -152.74316406 142.89160156 C-154.35092915 139.41694808 -155.98102767 135.9535532 -157.6171875 132.4921875 C-163.14534076 120.76887171 -168.47464682 109.0012894 -173.375 97 C-173.81602051 95.92097412 -174.25704102 94.84194824 -174.71142578 93.73022461 C-182.96027821 73.2166731 -182.96027821 73.2166731 -182.3125 63.5 C-175.39575972 60.69457613 -168.43999356 58.02079692 -161.4375 55.4375 C-160.31947998 55.02395264 -159.20145996 54.61040527 -158.04956055 54.18432617 C-149.83656101 51.15059265 -141.61243798 48.14748225 -133.38671875 45.1484375 C-132.32102158 44.75981537 -131.2553244 44.37119324 -130.15733337 43.97079468 C-129.07069901 43.57453888 -127.98406464 43.17828308 -126.86450195 42.77001953 C-125.75902008 42.36688538 -124.65353821 41.96375122 -123.51455688 41.54840088 C-121.24670692 40.72149699 -118.97878238 39.89479759 -116.71078491 39.06829834 C-102.67619655 33.95228339 -88.66801276 28.77514031 -74.69692993 23.48825073 C-61.17711579 18.37327883 -47.61510537 13.42839978 -33.9375 8.75 C-33.20925018 8.50065704 -32.48100037 8.25131409 -31.73068237 7.99441528 C-27.26643575 6.46980318 -22.79337709 4.97501785 -18.3125 3.5 C-17.35674072 3.17902344 -16.40098145 2.85804688 -15.41625977 2.52734375 C-10.20540008 0.85017126 -5.47491403 -0.02149132 0 0 Z " fill="#FEFEFE" transform="translate(276.3125,517.5)"/>
<path d="M0 0 C5.38742089 -0.74979569 10.04499552 -1.19744024 14.8125 1.72265625 C21.00287386 7.22416228 26.42279448 13.4978051 30 21 C30.77150391 20.76023437 30.77150391 20.76023437 31.55859375 20.515625 C42.70302989 18.16192009 55.09304236 19.66969334 64.75 25.75 C71.59435708 30.71767852 75.87411188 35.14784392 79 43 C80.70542969 42.93039062 80.70542969 42.93039062 82.4453125 42.859375 C94.98866647 42.50192898 107.4083624 42.92970674 117.45703125 51.5 C124.21520061 58.06996717 126.36477817 64.25816871 126.51977539 73.48754883 C126.40086803 92.72852074 122.40990442 107.84214139 114.21484375 125.15234375 C111.46625838 131.02234358 109.35459566 137.06698015 107.2890625 143.203125 C103.44033917 154.59635576 103.44033917 154.59635576 100.75 157.0625 C97.02097447 158.3337587 94.84633584 157.8827656 91 157 C90.21109375 156.82339844 89.4221875 156.64679688 88.609375 156.46484375 C82.02109999 154.77735613 75.5511886 152.02647658 71.77734375 146.0703125 C68.51109096 137.37124728 74.34272586 125.44375713 77 117 C77.49632138 115.40241445 77.99241285 113.80475746 78.48828125 112.20703125 C79.96755936 107.46337078 81.4786945 102.73032535 83 98 C83.33281982 96.95851807 83.33281982 96.95851807 83.67236328 95.89599609 C86.39103347 87.41432224 89.49862124 79.19007626 93 71 C95.05682946 66.02123685 96.51984862 61.1719903 97.5703125 55.8828125 C98 54 98 54 99 52 C93.06 52 87.12 52 81 52 C81.103125 54.31 81.20625 56.62 81.3125 59 C81.51231952 71.08408541 77.20313914 81.64634122 72.4453125 92.61328125 C70.93410808 96.15440079 69.51439327 99.72385138 68.10131836 103.30493164 C65.01866852 111.11696766 61.77525925 118.76723655 58.18359375 126.359375 C56.7523346 129.55254722 55.79634433 132.59743785 55 136 C54.06896552 139.93103448 54.06896552 139.93103448 53 141 C47.15567897 141.44897779 42.50183313 140.20029341 37 138.3125 C36.23171875 138.06822266 35.4634375 137.82394531 34.671875 137.57226562 C29.64496084 135.88380381 24.65753888 133.98253308 21 130 C19.26199303 124.63190047 20.23849146 121.41625058 22.625 116.4375 C23.1912826 115.21528714 23.75368215 113.99126886 24.3125 112.765625 C24.73982422 111.83459961 24.73982422 111.83459961 25.17578125 110.88476562 C26.49125669 107.87662866 27.55104154 104.78855507 28.625 101.6875 C29.93722105 97.92579967 31.26926609 94.24293939 32.9375 90.625 C38.33505429 78.85049648 42.39766484 66.42544593 46 54 C46.19126465 53.36320312 46.3825293 52.72640625 46.57958984 52.0703125 C48.00426631 46.98020627 48.24365946 42.26665448 48.125 37 C48.11597656 36.22527344 48.10695313 35.45054687 48.09765625 34.65234375 C48.07439388 32.76809157 48.0385364 30.88400168 48 29 C43.5899187 27.5299729 39.02811884 27.08963123 34.74609375 29.01171875 C33.88177734 29.50091797 33.88177734 29.50091797 33 30 C33.00902344 30.97195313 33.01804687 31.94390625 33.02734375 32.9453125 C32.8562048 45.80608744 29.33039436 56.97568113 25 69 C24.56171875 70.24136719 24.1234375 71.48273438 23.671875 72.76171875 C20.10893072 82.41729775 15.74678323 91.83993922 10.9375 100.9375 C8.5351859 105.60693303 6.85959981 110.60231948 5.10522461 115.54272461 C3.2097421 120.7902579 3.2097421 120.7902579 1 123 C-9.06453793 124.72056397 -16.80789567 121.78776509 -25 116 C-27.50139198 112.24791203 -27.52425287 109.34161882 -27 105 C-26.17515174 102.01674126 -25.02571389 99.21930566 -23.8125 96.375 C-23.16380015 94.78449134 -22.51667944 93.19333775 -21.87109375 91.6015625 C-21.55124512 90.82200195 -21.23139648 90.04244141 -20.90185547 89.23925781 C-18.74954101 83.89517871 -16.90784896 78.4348592 -15 73 C-10.21742453 59.53477264 -10.21742453 59.53477264 -8.5 55 C-8.27183594 54.38898438 -8.04367187 53.77796875 -7.80859375 53.1484375 C-7.16601617 51.44110575 -6.5092817 49.7391035 -5.84765625 48.0390625 C1.58599133 28.49356742 1.58599133 28.49356742 2 8 C1.47535156 7.51402344 0.95070313 7.02804687 0.41015625 6.52734375 C-0.05519531 6.02332031 -0.52054687 5.51929688 -1 5 C-0.6875 2.3125 -0.6875 2.3125 0 0 Z " fill="#FBFBFB" transform="translate(452,430)"/>
<path d="M0 0 C1.12535156 0.05317383 1.12535156 0.05317383 2.2734375 0.10742188 C6.12655083 0.33628588 9.03215977 0.75052716 12.375 2.6875 C13.40625 2.749375 14.4375 2.81125 15.5 2.875 C21.14736237 4.05912437 24.86038347 7.22105315 29.375 10.6875 C30.4475 11.409375 31.52 12.13125 32.625 12.875 C39.21942478 19.61929807 44.50324998 31.31703378 44.625 40.9140625 C44.56588751 42.38138447 44.48145911 43.84785175 44.375 45.3125 C44.32303467 46.1159082 44.27106934 46.91931641 44.2175293 47.74707031 C42.01802516 75.08041001 33.24779442 99.29065085 12.375 117.6875 C5.59046525 122.53359625 -2.04668665 121.89678476 -10.0625 121.9375 C-11.07376953 121.958125 -12.08503906 121.97875 -13.12695312 122 C-19.18702945 122.03162466 -23.22789468 121.41637347 -28.625 118.6875 C-30.48809726 118.12557388 -32.36307211 117.60081035 -34.25 117.125 C-37.83766721 116.21523339 -41.25498059 115.23652647 -44.625 113.6875 C-45.625 111.875 -45.625 111.875 -46.625 109.6875 C-47.73875 108.635625 -47.73875 108.635625 -48.875 107.5625 C-58.07408342 97.94527643 -61.26368831 86.6355359 -61.32373047 73.62988281 C-60.51683839 51.72128416 -48.26630489 25.5486649 -32.234375 10.43359375 C-26.85285384 6.0496675 -21.73436563 2.6875 -14.625 2.6875 C-14.625 2.0275 -14.625 1.3675 -14.625 0.6875 C-9.61959045 -0.36919757 -5.0605567 -0.32067764 0 0 Z " fill="#FBFBFB" transform="translate(647.625,505.3125)"/>
<path d="M0 0 C5.54481509 2.43971864 7.4887605 6.14184207 10.01953125 11.3671875 C15.73814307 26.72314114 11.31922891 42.38083648 5 56.625 C4.51853516 57.65173828 4.51853516 57.65173828 4.02734375 58.69921875 C2.74610368 61.56861191 1.66245179 64.49401529 0.5625 67.4375 C-0.8974269 71.30986707 -2.44121023 74.94102561 -4.4375 78.5625 C-7.00719422 83.53821364 -8.66470864 88.72751367 -10.3125 94.0625 C-10.57925537 94.90176025 -10.84601074 95.74102051 -11.12084961 96.60571289 C-13.02621093 103.00098516 -14.72102543 109.56278348 -11.609375 115.77734375 C-10.99578125 116.49019531 -10.3821875 117.20304687 -9.75 117.9375 C-9.14671875 118.66839844 -8.5434375 119.39929688 -7.921875 120.15234375 C-4.74152519 123.20987517 -2.0637358 124.25805337 2.328125 124.1953125 C3.12734375 124.18886719 3.9265625 124.18242188 4.75 124.17578125 C5.575 124.15902344 6.4 124.14226562 7.25 124.125 C8.09046875 124.11597656 8.9309375 124.10695313 9.796875 124.09765625 C11.86470604 124.07415817 13.93238995 124.03828908 16 124 C16.29003906 123.07574219 16.58007812 122.15148437 16.87890625 121.19921875 C18 118 18 118 19.9375 114.8125 C21.62617319 111.97552904 22.48948527 109.39638151 23.25 106.1875 C24.57692259 100.85781645 26.65045165 96.09366569 28.9375 91.125 C31.73943957 85.00681293 34.08466362 79.00686205 35.95703125 72.53125 C46.51530743 36.78337859 46.51530743 36.78337859 58.06640625 28.046875 C61.31727839 26.28680685 63.40129245 26.29311102 67 27 C72.17132676 28.88228369 76.84993217 31.41808315 80 36 C81.31377115 42.2231265 81.53955069 47.1444173 79 53 C78.52258245 55.01177685 78.0892072 57.03424831 77.6875 59.0625 C72.33086722 84.66128279 72.33086722 84.66128279 66.99609375 96.4609375 C65.77021966 99.58571459 65.36489743 102.43086262 65.23828125 105.76953125 C65 108 65 108 63.98828125 110.984375 C62.38478492 116.34779377 62.7894678 121.89435572 62.875 127.4375 C62.88402344 128.55060547 62.89304687 129.66371094 62.90234375 130.81054688 C62.9257776 133.54059023 62.958586 136.2701801 63 139 C59.2400354 140.25332153 55.88806433 140.76055372 52 140 C48.52478989 137.96005831 45.54169801 135.72608859 44.30859375 131.796875 C44.20675781 131.20390625 44.10492188 130.6109375 44 130 C43.34 130 42.68 130 42 130 C42 129.34 42 128.68 42 128 C39.93733676 128.79124124 37.87487621 129.58301091 35.8125 130.375 C34.66394531 130.81585937 33.51539063 131.25671875 32.33203125 131.7109375 C29.13541017 132.88823082 29.13541017 132.88823082 26.7109375 134.140625 C17.72039443 136.99065306 3.67270912 136.66761961 -4.75390625 132.38671875 C-5.86572266 131.70029297 -5.86572266 131.70029297 -7 131 C-7.95777344 130.42894531 -8.91554688 129.85789062 -9.90234375 129.26953125 C-20.733466 122.42666587 -34.19971968 112.87872776 -38 100 C-38.31995429 95.97687102 -38.19017417 92.02779144 -38 88 C-37.98066406 86.97648437 -37.96132813 85.95296875 -37.94140625 84.8984375 C-37.56394887 75.67932689 -35.048932 67.64010791 -32 59 C-31.71471436 58.1536499 -31.42942871 57.3072998 -31.13549805 56.43530273 C-28.80372846 49.70324868 -25.85208398 43.55644237 -22.4375 37.3125 C-15.77345812 25.75395531 -15.77345812 25.75395531 -14.0625 12.8125 C-14.21354059 7.36817342 -14.21354059 7.36817342 -12.1875 3.875 C-7.93056843 0.22620151 -5.6021528 -0.56971045 0 0 Z " fill="#FBFBFB" transform="translate(342,388)"/>
<path d="M0 0 C6.41082546 2.09333076 10.95297932 7.20868704 14.109375 13.0546875 C15.93363286 17.47765231 16.29712222 21.24604445 16 26 C17.25876953 25.27103516 17.25876953 25.27103516 18.54296875 24.52734375 C29.22914455 19.80610676 44.34225575 23.14288991 55 27 C65.21336411 31.18616426 75.2886366 35.45248825 80 46 C80.61875 46.78375 81.2375 47.5675 81.875 48.375 C83.99890156 53.3307703 84.05359015 59.17064054 82.16796875 64.234375 C80.76023775 66.78621696 79.65198862 68.67400569 77 70 C71.50632716 70.36943753 67.27975658 69.42882422 62.1875 67.625 C61.52041016 67.40328125 60.85332031 67.1815625 60.16601562 66.953125 C57.23467211 65.94741683 55.2184153 65.2184153 53 63 C52.87616333 61.12805029 52.82437344 59.2510038 52.8125 57.375 C52.42203854 51.55991332 51.02948486 48.65864315 46.8828125 44.62109375 C46.26148438 44.08613281 45.64015625 43.55117188 45 43 C44.071875 42.195625 43.14375 41.39125 42.1875 40.5625 C37.16813248 38.10202573 32.20708027 37.16528048 26.71875 38.59375 C21.58907949 40.81405515 19.30521939 43.93196165 17 49 C16.0081131 51.87798528 15.27216691 54.79125858 14.5625 57.75 C14.13560488 59.4453599 13.70851618 61.14067107 13.28125 62.8359375 C13.06855469 63.69541992 12.85585938 64.55490234 12.63671875 65.44042969 C8.23264602 83.14453189 3.46294262 100.79568194 -2.25 118.125 C-2.49613037 118.87724854 -2.74226074 119.62949707 -2.99584961 120.40454102 C-4.06975994 123.59809901 -5.11947691 126.17921536 -7 129 C-13.95581259 129.99229774 -21.00555144 129.82624376 -27 126 C-31.42345944 120.85662854 -31.56027628 116.77279147 -31.375 110.3125 C-31.37371094 109.47783203 -31.37242187 108.64316406 -31.37109375 107.78320312 C-31.23173519 97.69519156 -28.93547115 88.1148656 -26.25 78.4375 C-25.98904541 77.48931396 -25.72809082 76.54112793 -25.45922852 75.56420898 C-23.767965 69.51123922 -21.93790967 63.52018533 -19.9375 57.5625 C-19.69209473 56.82974854 -19.44668945 56.09699707 -19.19384766 55.34204102 C-18.02924371 51.90572619 -16.81826939 48.49823917 -15.51171875 45.11328125 C-12.09359594 35.89879242 -10.88883503 27.77825169 -12 18 C-12.66 17.01 -13.32 16.02 -14 15 C-14.70413451 11.00539077 -15.08917358 6.80995021 -12.9375 3.234375 C-9.01595624 -0.47404138 -5.04761118 -0.89374202 0 0 Z " fill="#FBFBFB" transform="translate(729,530)"/>
<path d="M0 0 C6.36431258 3.24986174 11.80789069 9.04887137 14.9375 15.5 C16.18811035 19.61965762 16.22527367 22.71980033 16 27 C16.83273438 26.51144531 17.66546875 26.02289063 18.5234375 25.51953125 C27.14202641 21.75253003 41.09144037 23.26656618 50 26 C54.85419363 28.06409282 59.49197642 30.54226017 64.12817383 33.04931641 C65.98106926 33.99038525 67.84782362 34.76039763 69.78125 35.51953125 C74.47274085 37.6773893 76.27183544 40.77016562 79 45 C79.41636719 45.56976563 79.83273437 46.13953125 80.26171875 46.7265625 C83.58741894 51.65093261 83.8622246 56.29331758 83 62 C82.14839247 65.07384966 81.32376922 67.76941451 79 70 C73.31011743 71.54985607 69.20171745 70.5818279 63.8125 68.75 C62.76545898 68.42322266 62.76545898 68.42322266 61.69726562 68.08984375 C54.49216109 65.7452712 54.49216109 65.7452712 52 63 C51.85546875 60.58203125 51.85546875 60.58203125 52.1875 57.8125 C52.36254619 53.24922691 51.87645084 51.04130577 48.875 47.5625 C47.61812335 46.33823691 46.32796906 45.14675943 45 44 C44.071875 43.195625 43.14375 42.39125 42.1875 41.5625 C36.60585295 38.82639851 30.73371592 38.21236724 24.6875 39.8125 C20.44213536 41.74298775 18.88732304 44.71740818 17.078125 48.890625 C15.16194714 54.41699302 13.8427403 60.05638388 12.53125 65.74804688 C11.58827909 69.74527285 10.54517852 73.71598009 9.5 77.6875 C9.28875488 78.49251953 9.07750977 79.29753906 8.85986328 80.12695312 C7.35427576 85.80569959 5.67258116 91.41342789 3.90234375 97.015625 C2.69185306 101.01915265 1.71131191 105.06695453 0.71875 109.12890625 C0.00581746 111.97676179 -0.75279073 114.8031632 -1.5625 117.625 C-1.79066406 118.42164063 -2.01882812 119.21828125 -2.25390625 120.0390625 C-3 122 -3 122 -5 124 C-5.70710678 125.64991582 -6.37943989 127.31562256 -7 129 C-9.20805524 129.0544452 -11.41650554 129.09299283 -13.625 129.125 C-14.85476562 129.14820313 -16.08453125 129.17140625 -17.3515625 129.1953125 C-21.85473748 128.95424318 -25.60175639 128.4464589 -28.8125 125.125 C-33.50023401 116.73642335 -32.27471216 101.92900113 -30.2109375 92.859375 C-29.23403042 89.53341655 -28.13699587 86.27405015 -27 83 C-26.49943839 81.02613591 -26.01981568 79.04682955 -25.5625 77.0625 C-24.12223285 71.17619077 -22.21667045 65.47883927 -20.26171875 59.75 C-18.7109424 55.14088143 -17.3020054 50.49626611 -15.9140625 45.8359375 C-15.16033988 43.49746475 -14.28590613 41.40453274 -13.25 39.1875 C-11.68325083 35.17593344 -11.67657218 31.06672742 -11.625 26.8125 C-11.61114258 26.12244873 -11.59728516 25.43239746 -11.58300781 24.72143555 C-11.62427277 20.24147289 -12.50937777 17.66835832 -15 14 C-15.56832876 10.52687981 -15.85996079 8.20881281 -13.7578125 5.25390625 C-9.57866976 0.91882535 -6.1576687 -0.60369301 0 0 Z " fill="#FBFBFB" transform="translate(232,346)"/>
<path d="M0 0 C2.26723133 0.98436219 4.26480495 1.55440796 6.6796875 2.01953125 C11.58712228 3.38717701 14.63961249 5.84904562 18.4921875 9.08203125 C19.08644531 9.55511719 19.68070313 10.02820313 20.29296875 10.515625 C24.33412862 13.76591349 24.33412862 13.76591349 25.4921875 16.08203125 C26.01512367 23.14166948 24.38920282 29.30697653 22.4921875 36.08203125 C19.82060735 35.773772 17.15750786 35.43903002 14.4921875 35.08203125 C12.95884766 34.8809375 12.95884766 34.8809375 11.39453125 34.67578125 C9.80318359 34.44375 9.80318359 34.44375 8.1796875 34.20703125 C7.17292969 34.06523438 6.16617188 33.9234375 5.12890625 33.77734375 C2.29430572 33.02984909 1.18496641 32.44736205 -0.5078125 30.08203125 C-0.76046655 26.98701917 -0.90716263 24.88073152 0.4921875 22.08203125 C0.99249956 18.66631272 0.99249956 18.66631272 0.4921875 15.08203125 C-3.99378425 9.84839754 -11.62431054 7.66850623 -18.1953125 6.33203125 C-23.41395798 7.51361136 -25.62354587 10.74489583 -28.5078125 15.08203125 C-34.10053031 23.9695526 -33.33643788 34.93251707 -33.5078125 45.08203125 C-32.61267944 45.37750854 -32.61267944 45.37750854 -31.69946289 45.67895508 C-1.72783628 55.6127386 -1.72783628 55.6127386 8.4921875 66.08203125 C12.76998127 74.63761879 5.15243351 90.70641295 2.4921875 99.08203125 C2.17378906 100.15839844 1.85539063 101.23476563 1.52734375 102.34375 C-0.14287681 106.76195608 -3.29659189 108.02409613 -7.41015625 109.9921875 C-16.96130539 113.81620438 -27.13945689 113.17578992 -36.50390625 109.27734375 C-40.06651299 107.8597135 -43.69834104 106.81154384 -47.3828125 105.76953125 C-54.24662738 103.78150015 -61.0787136 101.70351244 -67.8828125 99.51953125 C-69.24768799 99.09837036 -69.24768799 99.09837036 -70.64013672 98.66870117 C-71.91655029 98.25261597 -71.91655029 98.25261597 -73.21875 97.828125 C-73.97462402 97.58763428 -74.73049805 97.34714355 -75.50927734 97.09936523 C-78.75834472 95.44546055 -80.11044472 92.89404368 -81.67578125 89.6953125 C-83.61808775 83.59482871 -83.24319028 76.49304777 -81.3828125 70.39453125 C-79.5078125 67.08203125 -79.5078125 67.08203125 -76.9453125 65.95703125 C-67.92430529 66.28506788 -60.75162157 68.52622906 -53.5078125 74.08203125 C-50.6040934 77.31338237 -50.11235469 79.45107878 -50.26953125 83.84375 C-50.6765878 87.66741238 -51.5440014 91.36447415 -52.5078125 95.08203125 C-44.88409324 98.65058069 -36.98059367 101.05431761 -28.5078125 100.08203125 C-22.91024602 96.96031148 -21.25202922 93.09706515 -19.31640625 87.10546875 C-16.94494267 78.2382571 -16.12324851 69.21639729 -15.5078125 60.08203125 C-16.7865625 59.85515625 -18.0653125 59.62828125 -19.3828125 59.39453125 C-24.09699677 58.36260745 -27.9930081 56.48417414 -32.23828125 54.234375 C-34.56998816 52.9714051 -34.56998816 52.9714051 -37.5078125 52.14453125 C-46.33462831 49.01836732 -53.56649035 43.25754109 -59.5078125 36.08203125 C-59.5078125 35.42203125 -59.5078125 34.76203125 -59.5078125 34.08203125 C-60.1678125 34.08203125 -60.8278125 34.08203125 -61.5078125 34.08203125 C-64.669536 27.75858425 -61.97993761 19.65800177 -59.91015625 13.375 C-56.79680001 6.06424984 -52.06172709 -0.36773588 -45.5078125 -4.91796875 C-29.38217814 -11.19034902 -14.97299466 -7.18269744 0 0 Z " fill="#F9F9F9" transform="translate(874.5078125,591.91796875)"/>
<path d="M0 0 C3.19602263 3.19602263 2.29412598 6.85771447 2.32910156 11.21850586 C2.32088379 13.09034546 2.32088379 13.09034546 2.3125 15 C2.30621582 16.9037439 2.30621582 16.9037439 2.29980469 18.84594727 C1.98277036 45.4076901 -5.38383546 70.86030721 -23.5625 90.8125 C-24.7690625 91.8953125 -24.7690625 91.8953125 -26 93 C-26.55558594 93.54785156 -27.11117187 94.09570312 -27.68359375 94.66015625 C-32.2422464 98.9639165 -32.2422464 98.9639165 -35.625 99.125 C-39.78918156 97.15249294 -42.44918232 94.82622652 -45 91 C-45 89.68 -45 88.36 -45 87 C-45.66 87 -46.32 87 -47 87 C-47.81384459 72.44122455 -45.47680758 57.68615179 -41.125 43.8125 C-40.89280762 43.07185303 -40.66061523 42.33120605 -40.42138672 41.56811523 C-37.19852101 31.92010805 -32.49514153 23.76081769 -26.1875 15.8125 C-25.60935547 15.05775391 -25.03121094 14.30300781 -24.43554688 13.52539062 C-10.26351788 -4.5615635 -10.26351788 -4.5615635 0 0 Z " fill="#030303" transform="translate(660,519)"/>
<path d="M0 0 C0.99 0.33 1.98 0.66 3 1 C0.36 5.62 -2.28 10.24 -5 15 C-5.66 14.67 -6.32 14.34 -7 14 C-5.53967505 8.68972746 -3.01679014 4.53669968 0 0 Z " fill="#292929" transform="translate(630,540)"/>
<path d="M0 0 C1.60433809 0.47859241 3.20846416 0.95789558 4.8125 1.4375 C6.15248047 1.83775391 6.15248047 1.83775391 7.51953125 2.24609375 C9.35473055 2.80387873 11.18033726 3.39344575 13 4 C13 4.99 13 5.98 13 7 C7.25 6.25 7.25 6.25 5 4 C2.42938689 3.35232207 2.42938689 3.35232207 0 3 C0 2.01 0 1.02 0 0 Z " fill="#202020" transform="translate(808,691)"/>
<path d="M0 0 C0 0.33 0 0.66 0 1 C-1.051875 1.226875 -2.10375 1.45375 -3.1875 1.6875 C-7.22076257 2.86557264 -9.4313291 4.60028851 -12 8 C-12.88527109 11.68441504 -12.88527109 11.68441504 -13 15 C-13.33 15 -13.66 15 -14 15 C-14.48970976 7.776781 -14.48970976 7.776781 -12.1875 4.125 C-8.05124688 0.10692554 -5.65286871 -0.2133158 0 0 Z " fill="#B3B3B3" transform="translate(342,388)"/>
<path d="M0 0 C4.95 0 9.9 0 15 0 C15 0.33 15 0.66 15 1 C13.25519803 1.41815082 11.50377443 1.80873982 9.75 2.1875 C8.28820312 2.51814453 8.28820312 2.51814453 6.796875 2.85546875 C4 3 4 3 0 0 Z " fill="#5D5D5D" transform="translate(628,627)"/>
<path d="M0 0 C0.66 0.33 1.32 0.66 2 1 C-0.64 3.64 -3.28 6.28 -6 9 C-6 5.06368636 -4.57142871 3.87394974 -2 1 C-1.34 0.67 -0.68 0.34 0 0 Z " fill="#272727" transform="translate(88,568)"/>
<path d="M0 0 C0.99 0.33 1.98 0.66 3 1 C1.02 3.97 1.02 3.97 -1 7 C-1.66 6.01 -2.32 5.02 -3 4 C-2.01 2.68 -1.02 1.36 0 0 Z " fill="#1F1F1F" transform="translate(630,540)"/>
</svg>
